<svg width="14" height="14" fill="none" xmlns="http://www.w3.org/2000/svg"><path fill-rule="evenodd" clip-rule="evenodd" d="M8 .6667A.6667.6667 0 0 1 8.6667 0h2.6666a1.9997 1.9997 0 0 1 2 2v9.3333a1.9996 1.9996 0 0 1-2 2H8.6667a.6666.6666 0 1 1 0-1.3333h2.6666a.6664.6664 0 0 0 .4714-.1953.6664.6664 0 0 0 .1953-.4714V2a.6664.6664 0 0 0-.6667-.6667H8.6667A.6667.6667 0 0 1 8 .6667ZM4.8619 2.8619a.6667.6667 0 0 1 .9428 0L9.1338 6.191a.6731.6731 0 0 1 .129.177.664.664 0 0 1 .0705.2987.6639.6639 0 0 1-.1998.4759l-3.3288 3.3288a.6667.6667 0 1 1-.9428-.9428L7.057 7.3333H.6668A.6667.6667 0 1 1 .6667 6H7.057L4.862 3.8047a.6667.6667 0 0 1 0-.9428Z" fill="#2D3440"/></svg>