<svg width="28" height="28" viewBox="0 0 28 28" fill="none" xmlns="http://www.w3.org/2000/svg"><path d="m16.0037 13.7913-2.8074-1.31c-.245-.1138-.4463.0137-.4463.2849v2.4676c0 .2712.2013.3987.4463.285l2.8062-1.3101c.2463-.1149.2462-.3024.0012-.4174ZM14 2C7.3725 2 2 7.3725 2 14s5.3725 12 12 12 12-5.3725 12-12S20.6275 2 14 2Zm0 16.875c-6.1425 0-6.25-.5537-6.25-4.875 0-4.3212.1075-4.875 6.25-4.875s6.25.5538 6.25 4.875c0 4.3213-.1075 4.875-6.25 4.875Z" fill="#FCFCFC"/><path d="M14 24C8.4771 24 4 19.5228 4 14H0c0 7.732 6.268 14 14 14v-4Zm10-10c0 5.5228-4.4772 10-10 10v4c7.732 0 14-6.268 14-14h-4ZM14 4c5.5228 0 10 4.4771 10 10h4c0-7.732-6.268-14-14-14v4Zm0-4C6.268 0 0 6.268 0 14h4C4 8.4771 8.4771 4 14 4V0Z" fill="#FCFCFC" fill-opacity=".3"/></svg>