<svg width="18" height="25" viewBox="0 0 18 25" fill="none" xmlns="http://www.w3.org/2000/svg">
<path d="M8.96671 1.50247C7.84027 1.5022 6.73354 1.78149 5.75739 2.31234C4.78125 2.84319 3.96997 3.60697 3.40484 4.52716C2.83971 5.44734 2.54057 6.49161 2.5374 7.55535C2.53423 8.61909 2.82713 9.66494 3.38677 10.5881C2.99856 10.6405 2.63346 10.7939 2.33238 11.0311C2.0313 11.2684 1.80614 11.5802 1.68212 11.9315C1.55811 12.2828 1.54014 12.6598 1.63023 13.0202C1.72032 13.3806 1.91491 13.7102 2.1922 13.972C2.46949 14.2339 2.81851 14.4177 3.20016 14.5027C3.58182 14.5878 3.98102 14.5708 4.35304 14.4537C4.72505 14.3366 5.05519 14.124 5.30644 13.8397C5.55769 13.5553 5.72014 13.2106 5.77557 12.844C5.85512 12.8869 5.93695 12.9277 6.01877 12.9684C6.13246 13.6294 6.49147 14.2306 7.03157 14.6645C7.57167 15.0983 8.25762 15.3366 8.96671 15.3366C9.67579 15.3366 10.3617 15.0983 10.9018 14.6645C11.4419 14.2306 11.801 13.6294 11.9146 12.9684C11.9965 12.9277 12.0783 12.8869 12.1578 12.844C12.2131 13.2109 12.3757 13.556 12.6271 13.8406C12.8786 14.1252 13.2091 14.3379 13.5815 14.455C13.9539 14.572 14.3535 14.5887 14.7354 14.5032C15.1173 14.4177 15.4664 14.2334 15.7435 13.9709C16.0206 13.7085 16.2148 13.3783 16.3042 13.0174C16.3937 12.6565 16.3748 12.2792 16.2498 11.9279C16.1248 11.5766 15.8986 11.2651 15.5965 11.0284C15.2945 10.7918 14.9286 10.6393 14.5398 10.5881C15.0992 9.66541 15.3921 8.62015 15.3892 7.55696C15.3863 6.49377 15.0878 5.44993 14.5235 4.52994C13.9591 3.60995 13.1488 2.84606 12.1736 2.31475C11.1984 1.78344 10.0926 1.50333 8.96671 1.50247ZM8.96671 1.44472e-06C10.2288 -0.000734813 11.4732 0.279947 12.5988 0.819204C13.7243 1.35846 14.6991 2.14106 15.4438 3.10329C16.1885 4.06553 16.6821 5.18023 16.8845 6.35666C17.0868 7.53309 16.9921 8.73801 16.6082 9.87336C17.3523 10.4336 17.8388 11.2433 17.9666 12.1338C18.0943 13.0244 17.8533 13.9271 17.2938 14.6541C16.7343 15.381 15.8995 15.8762 14.9631 16.0364C14.0267 16.1966 13.0609 16.0095 12.2669 15.5141C11.8382 15.9342 11.3242 16.2684 10.7556 16.4967C10.187 16.7249 9.57547 16.8426 8.95762 16.8426C8.33976 16.8426 7.72826 16.7249 7.15965 16.4967C6.59104 16.2684 6.07701 15.9342 5.64829 15.5141C4.854 15.9808 3.90183 16.1457 2.98383 15.9756C2.06584 15.8054 1.25034 15.3128 0.701851 14.5971C0.153358 13.8814 -0.0873146 12.9959 0.0283813 12.1193C0.144077 11.2426 0.607531 10.44 1.32526 9.87336C0.941296 8.73801 0.84663 7.53309 1.04896 6.35666C1.2513 5.18023 1.74491 4.06553 2.48963 3.10329C3.23435 2.14106 4.20914 1.35846 5.33466 0.819204C6.46017 0.279947 7.70462 -0.000734813 8.96671 1.44472e-06Z" fill="white"/>
<path d="M3.68679 16.9156C4.31265 16.9143 4.93155 16.7916 5.5051 16.5551C5.5892 16.6194 5.67784 16.6774 5.76648 16.7375L5.64602 16.8491L6.53244 17.6862L6.91202 17.3278C7.06885 17.3857 7.22795 17.4372 7.3916 17.4823L6.85519 17.9888L7.73935 18.8259L8.63032 17.9888L8.27802 17.6561C8.50419 17.6834 8.73189 17.6977 8.95989 17.6991C9.18105 17.6986 9.40195 17.685 9.6213 17.6583L9.27128 17.9888L10.1577 18.8259L11.0441 17.9888L10.5123 17.4866C10.6741 17.4428 10.8334 17.3912 10.9896 17.332L11.3714 17.6862L12.2669 16.8491L12.1556 16.7439C12.2488 16.6817 12.3397 16.6216 12.4283 16.5551C13.0019 16.7916 13.6208 16.9143 14.2466 16.9156C14.2921 16.9156 14.3375 16.9156 14.383 16.9156C14.4002 17.0326 14.3878 17.1518 14.3466 17.2634L9.71449 29.5235C9.70941 29.5382 9.70334 29.5525 9.69631 29.5664C9.69011 29.5814 9.68251 29.5957 9.67358 29.6094C9.65767 29.6394 9.63948 29.6673 9.6213 29.6952L9.60084 29.7231C9.57287 29.7585 9.54169 29.7915 9.50766 29.8218L9.48493 29.839L9.39628 29.9034L9.35537 29.9249C9.3239 29.9413 9.29125 29.9557 9.25764 29.9678H9.23264L9.14172 29.9893H9.10535C9.02118 30.0036 8.93497 30.0036 8.85079 29.9893H8.81215L8.72351 29.9678H8.68487C8.65219 29.9553 8.62032 29.9409 8.58941 29.9249L8.5485 29.9013C8.51659 29.8837 8.48686 29.8628 8.45985 29.839L8.43485 29.8218C8.40143 29.791 8.3703 29.758 8.34166 29.7231L8.32348 29.6952C8.30315 29.6679 8.28492 29.6392 8.26893 29.6094L8.22802 29.5235L3.58678 17.2569C3.54457 17.1456 3.53208 17.0262 3.55041 16.9092C3.59587 16.9092 3.62996 16.9156 3.68679 16.9156ZM6.86883 20.2704L7.75526 21.1075L8.63032 20.2704L7.74617 19.4334L6.86883 20.2704ZM9.84404 21.4102L8.95762 20.5731L8.07119 21.4102L8.95762 22.2473L9.84404 21.4102ZM8.07119 23.6918L8.95762 24.5289L9.84404 23.6918L8.95762 22.8547L8.07119 23.6918ZM8.95762 18.2936L8.07119 19.1307L8.95762 19.9614L9.84404 19.1243L8.95762 18.2936ZM9.27809 20.2704L10.1645 21.1075L11.0509 20.2704L10.1645 19.4334L9.27809 20.2704ZM12.667 17.2355L12.5806 17.1539L11.6942 17.9888L12.201 18.4589L12.667 17.2355ZM12.0397 18.9161L11.3805 18.2936L10.4964 19.1307L11.3714 19.9614L11.7783 19.5772L12.0397 18.9161ZM11.3964 20.6053L11.3714 20.5817L10.4873 21.4188L10.9305 21.848L11.3964 20.6053ZM10.4486 23.1273L10.7714 22.2687L10.1736 21.7064L9.28719 22.5435L10.1645 23.3956L10.4486 23.1273ZM9.66903 25.1921L10.0941 24.0717L9.28719 24.8315L9.66903 25.1921ZM8.9758 27.0294L9.50084 25.6385L8.96671 25.1341L8.44622 25.6257L8.9758 27.0294ZM8.27575 25.1792L8.63032 24.8315L7.85527 24.0974L8.27575 25.1792ZM7.49388 23.1552L7.75071 23.3956L8.63032 22.5499L7.74617 21.715L7.16203 22.2644L7.49388 23.1552ZM6.98929 21.818L7.41887 21.4102L6.53244 20.5731V20.5838L6.98929 21.818ZM6.15514 19.6094L6.54154 19.9614L7.42796 19.1243L6.54154 18.2872L5.90285 18.9032L6.15514 19.6094ZM5.72784 18.4589L6.22106 17.991L5.33463 17.1539L5.2619 17.2226L5.72784 18.4589Z" fill="white"/>
</svg>
